<svg width="75" height="75" viewBox="0 0 75 75" fill="none" xmlns="http://www.w3.org/2000/svg">
<path d="M73.98 64.8423L59.3745 50.2392C58.7152 49.5801 57.8216 49.2139 56.884 49.2139H54.4962C58.5394 44.0435 60.942 37.5403 60.942 30.4658C60.942 13.6364 47.3033 0 30.471 0C13.6387 0 0 13.6364 0 30.4658C0 47.2952 13.6387 60.9315 30.471 60.9315C37.5467 60.9315 44.0511 58.5294 49.2224 54.4869V56.8743C49.2224 57.8117 49.5886 58.7052 50.2478 59.3643L64.8534 73.9674C66.2304 75.3442 68.4572 75.3442 69.8196 73.9674L73.9654 69.8223C75.3424 68.4455 75.3424 66.2191 73.98 64.8423ZM30.471 49.2139C20.1138 49.2139 11.7196 40.8359 11.7196 30.4658C11.7196 20.1103 20.0991 11.7176 30.471 11.7176C40.8282 11.7176 49.2224 20.0957 49.2224 30.4658C49.2224 40.8212 40.8428 49.2139 30.471 49.2139Z" fill="white"/>
</svg>
